<?xml version="1.0" encoding="UTF-8"?>
<svg width="90px" height="90px" viewBox="0 0 90 90" version="1.1" xmlns="http://www.w3.org/2000/svg" xmlns:xlink="http://www.w3.org/1999/xlink">
    <g id="ICON/icon_logo" stroke="none" stroke-width="1" fill="none" fill-rule="evenodd">
        <path d="M44.1386355,68.9785772 L23.784626,79.6793133 C21.8292477,80.7073165 19.410739,79.9555304 18.3827358,78.0001521 C17.9733795,77.2215102 17.8321208,76.3296379 17.9808282,75.4626074 L21.8680981,52.7980847 C22.0906499,51.5005084 21.6604559,50.1765076 20.7177116,49.257559 L4.25097199,33.2064549 C2.66903768,31.6644501 2.63666845,29.131997 4.1786733,27.5500627 C4.79270772,26.9201282 5.59727736,26.5101795 6.46782549,26.3836814 L29.2242999,23.0769721 C30.5271405,22.8876583 31.6534029,22.0693808 32.2360509,20.8888069 L42.4130557,0.267943002 C43.3907449,-1.71307164 45.7892482,-2.52642763 47.7702628,-1.54873846 C48.5591133,-1.1594175 49.1976233,-0.520907418 49.5869443,0.267943002 L59.7639491,20.8888069 C60.3465971,22.0693808 61.4728595,22.8876583 62.7757001,23.0769721 L85.5321745,26.3836814 C87.718354,26.7013519 89.2330798,28.7311233 88.9154093,30.9173028 C88.7889113,31.7878509 88.3789626,32.5924205 87.749028,33.2064549 L71.2822884,49.257559 C70.3395441,50.1765076 69.9093501,51.5005084 70.1319019,52.7980847 L74.0191718,75.4626074 C74.3926158,77.6399531 72.9302645,79.7077769 70.7529187,80.0812209 C69.8858882,80.2299283 68.9940159,80.0886696 68.215374,79.6793133 L47.8613645,68.9785772 C46.6960684,68.3659448 45.3039316,68.3659448 44.1386355,68.9785772 Z" id="Star" fill="#FF1755" fill-rule="nonzero" transform="translate(46.000000, 43.000000) rotate(-30.000000) translate(-46.000000, -43.000000) "></path>
        <circle id="Oval" fill="#17010E" transform="translate(37.866025, 46.964102) rotate(-210.000000) translate(-37.866025, -46.964102) " cx="37.8660254" cy="46.9641016" r="5"></circle>
        <rect id="Rectangle" fill-opacity="0.8" fill="#17010E" transform="translate(33.348076, 41.031089) rotate(-210.000000) translate(-33.348076, -41.031089) " x="26.3480762" y="38.0310889" width="14" height="6"></rect>
        <circle id="Oval" fill="#17010E" transform="translate(52.133975, 38.964102) scale(-1, 1) rotate(-150.000000) translate(-52.133975, -38.964102) " cx="52.1339746" cy="38.9641016" r="5"></circle>
        <rect id="Rectangle" fill-opacity="0.8" fill="#17010E" transform="translate(47.388784, 24.852886) scale(-1, 1) rotate(-150.000000) translate(-47.388784, -24.852886) " x="38.3887841" y="20.8528857" width="18" height="8"></rect>
        <path d="M52.2406693,64 C55.5543778,64 58,63.578811 58,58.0360523 C58,52.4932937 55.3137085,48 52,48 C48.6862915,48 46,52.4932937 46,58.0360523 C46,63.578811 48.9269608,64 52.2406693,64 Z" id="Oval" fill="#17010E" transform="translate(52.000000, 56.000000) rotate(-30.000000) translate(-52.000000, -56.000000) "></path>
    </g>
</svg>
